# xmcd
#
# Track frame offsets:
#	150
#	18436
#	40343
#	58444
#	78905
#	99116
#	116126
#	138541
#	154371
#	174707
#	190755
#	218516
#
# Disc length: 3153 seconds
#
# Revision: 1
# Processed by: cddbd v1.5.2PL0 Copyright (c) Steve Scherf et al.
# Submitted via: audiograbber 1.83.01
#
DISCID=a40c4f0c
DTITLE=Penny Nichols - Golden State
DYEAR=2015
DGENRE=Country
TTITLE0=Charlie Bad Boy
TTITLE1=Guadalupe
TTITLE2=Poco Al Poco
TTITLE3=Leanin´ Back and Laughing
TTITLE4=Kick The Can
TTITLE5=Winter Fires
TTITLE6=Stevie Wonder
TTITLE7=That´s You Jim
TTITLE8=One and Only Life
TTITLE9=Carbon Canyon
TTITLE10=La Man
TTITLE11=Mr Sad Eyes
EXTD=
EXTT0=
EXTT1=
EXTT2=
EXTT3=
EXTT4=
EXTT5=
EXTT6=
EXTT7=
EXTT8=
EXTT9=
EXTT10=
EXTT11=
PLAYORDER=
